REM DIRINDEX 1\2,1\3,1\4,1\5
REM DIRNAME cjc004,folder01,folder02,folder03,folder04
TITLE ""
FILE "1Q_t_0622-0631.mp3" MP3
  TRACK 01 AUDIO
    TITLE "3:cjc004_2768"
    INDEX 01 00:00:00
  TRACK 02 AUDIO
    TITLE "0:"
    INDEX 01 00:01:11
  TRACK 03 AUDIO
    TITLE "4:cjc004_2769"
    INDEX 01 00:01:44
  TRACK 04 AUDIO
    TITLE "0:"
    INDEX 01 00:02:53
  TRACK 05 AUDIO
    TITLE "5:cjc004_2770"
    INDEX 01 00:03:04
  TRACK 06 AUDIO
    TITLE "0:"
    INDEX 01 00:06:57
  TRACK 07 AUDIO
    TITLE "3:cjc004_2771"
    INDEX 01 00:07:33
  TRACK 08 AUDIO
    TITLE "0:"
    INDEX 01 00:08:54
  TRACK 09 AUDIO
    TITLE "4:cjc004_2772"
    INDEX 01 00:09:10
  TRACK 10 AUDIO
    TITLE "0:"
    INDEX 01 00:10:25
  TRACK 11 AUDIO
    TITLE "5:cjc004_2773"
    INDEX 01 00:10:49
  TRACK 12 AUDIO
    TITLE "0:"
    INDEX 01 00:15:07
  TRACK 13 AUDIO
    TITLE "3:cjc004_2774"
    INDEX 01 00:15:58
  TRACK 14 AUDIO
    TITLE "0:"
    INDEX 01 00:16:55
  TRACK 15 AUDIO
    TITLE "4:cjc004_2775"
    INDEX 01 00:17:08
  TRACK 16 AUDIO
    TITLE "0:"
    INDEX 01 00:18:21
  TRACK 17 AUDIO
    TITLE "5:cjc004_2776"
    INDEX 01 00:18:48
  TRACK 18 AUDIO
    TITLE "0:"
    INDEX 01 00:22:21
  TRACK 19 AUDIO
    TITLE "3:cjc004_2777"
    INDEX 01 00:23:01
  TRACK 20 AUDIO
    TITLE "0:"
    INDEX 01 00:24:04
  TRACK 21 AUDIO
    TITLE "4:cjc004_2778"
    INDEX 01 00:24:33
  TRACK 22 AUDIO
    TITLE "0:"
    INDEX 01 00:25:72
  TRACK 23 AUDIO
    TITLE "5:cjc004_2779"
    INDEX 01 00:26:17
  TRACK 24 AUDIO
    TITLE "0:"
    INDEX 01 00:29:17
  TRACK 25 AUDIO
    TITLE "3:cjc004_2780"
    INDEX 01 00:29:70
  TRACK 26 AUDIO
    TITLE "0:"
    INDEX 01 00:31:10
  TRACK 27 AUDIO
    TITLE "4:cjc004_2781"
    INDEX 01 00:31:41
  TRACK 28 AUDIO
    TITLE "0:"
    INDEX 01 00:32:58
  TRACK 29 AUDIO
    TITLE "5:cjc004_2782"
    INDEX 01 00:33:13
  TRACK 30 AUDIO
    TITLE "0:"
    INDEX 01 00:37:12
  TRACK 31 AUDIO
    TITLE "3:cjc004_2783"
    INDEX 01 00:37:67
  TRACK 32 AUDIO
    TITLE "0:"
    INDEX 01 00:39:09
  TRACK 33 AUDIO
    TITLE "4:cjc004_2784"
    INDEX 01 00:39:35
  TRACK 34 AUDIO
    TITLE "0:"
    INDEX 01 00:40:66
  TRACK 35 AUDIO
    TITLE "5:cjc004_2785"
    INDEX 01 00:41:20
  TRACK 36 AUDIO
    TITLE "0:"
    INDEX 01 00:47:09
  TRACK 37 AUDIO
    TITLE "3:cjc004_2786"
    INDEX 01 00:47:70
  TRACK 38 AUDIO
    TITLE "0:"
    INDEX 01 00:49:29
  TRACK 39 AUDIO
    TITLE "4:cjc004_2787"
    INDEX 01 00:49:65
  TRACK 40 AUDIO
    TITLE "0:"
    INDEX 01 00:51:07
  TRACK 41 AUDIO
    TITLE "5:cjc004_2788"
    INDEX 01 00:51:36
  TRACK 42 AUDIO
    TITLE "0:"
    INDEX 01 00:56:10
  TRACK 43 AUDIO
    TITLE "3:cjc004_2789"
    INDEX 01 00:56:65
  TRACK 44 AUDIO
    TITLE "0:"
    INDEX 01 00:58:22
  TRACK 45 AUDIO
    TITLE "4:cjc004_2790"
    INDEX 01 00:58:54
  TRACK 46 AUDIO
    TITLE "0:"
    INDEX 01 01:00:06
  TRACK 47 AUDIO
    TITLE "5:cjc004_2791"
    INDEX 01 01:00:33
  TRACK 48 AUDIO
    TITLE "0:"
    INDEX 01 01:04:31
  TRACK 49 AUDIO
    TITLE "3:cjc004_2792"
    INDEX 01 01:05:09
  TRACK 50 AUDIO
    TITLE "0:"
    INDEX 01 01:06:06
  TRACK 51 AUDIO
    TITLE "4:cjc004_2793"
    INDEX 01 01:06:34
  TRACK 52 AUDIO
    TITLE "0:"
    INDEX 01 01:07:64
  TRACK 53 AUDIO
    TITLE "5:cjc004_2794"
    INDEX 01 01:08:13
  TRACK 54 AUDIO
    TITLE "0:"
    INDEX 01 01:12:11
  TRACK 55 AUDIO
    TITLE "3:cjc004_2795"
    INDEX 01 01:12:66
  TRACK 56 AUDIO
    TITLE "0:"
    INDEX 01 01:14:25
  TRACK 57 AUDIO
    TITLE "4:cjc004_2796"
    INDEX 01 01:14:53
  TRACK 58 AUDIO
    TITLE "0:"
    INDEX 01 01:15:64
  TRACK 59 AUDIO
    TITLE "5:cjc004_2797"
    INDEX 01 01:16:12
  TRACK 60 AUDIO
    TITLE "0:"
    INDEX 01 01:20:00
